<?xml version="1.0" encoding="utf-8"?>
<!-- Generator: Adobe Illustrator 23.0.4, SVG Export Plug-In . SVG Version: 6.00 Build 0)  -->
<svg version="1.1" id="Calque_1" xmlns="http://www.w3.org/2000/svg" xmlns:xlink="http://www.w3.org/1999/xlink" x="0px" y="0px"
	 viewBox="0 0 614 626" style="enable-background:new 0 0 614 626;" xml:space="preserve">
<style type="text/css">
	.st0{fill:#FBDD89;}
	.st1{fill:none;stroke:#00234B;stroke-width:3;stroke-linecap:round;stroke-linejoin:round;}
	.st2{fill:#00234B;}
	.st3{fill:none;stroke:#FBDD89;stroke-width:2.37;stroke-miterlimit:10;}
	.st4{fill:none;stroke:#FBDD89;stroke-width:1.78;stroke-miterlimit:10;}
	.st5{fill:#F0F7FF;}
	.st6{fill:#F59B83;}
	.st7{fill:none;stroke:#F59B83;stroke-width:2;stroke-linecap:round;stroke-linejoin:round;}
	.st8{fill:none;stroke:#00234B;stroke-width:2;stroke-miterlimit:10;}
</style>
<title>Fichier 6</title>
<g>
	<g id="Calque_2-2">
		<polygon class="st0" points="565.6,282.2 507.6,295.4 537.4,336.5 		"/>
		<polygon class="st0" points="32,208.3 9.8,227.1 32,238.2 		"/>
		<path class="st1" d="M126.8,624.3c0.1,0.1,0.3,0.2,0.5,0.2h132.8c0.4,0,0.7-0.3,0.7-0.7c0-0.3-0.2-0.6-0.5-0.7l-76.6-26.4
			c-1.8,6-7.6,11.5-11.2,16.4c-3.8,5.1-12.4,0.1-8.6-5c0.6-0.8-0.4,1.2,0.2,0.3c-0.1-0.7,1.6-4.3,1.8-5.1c1-3.7,2.6-7.2,4.7-10.4
			l-43.1-14.5c-0.1,0-10.6,0.2-12,0.2"/>
		<path class="st1" d="M115.6,578.7l-14.1-57.9c0-0.2-0.2-0.3-0.3-0.4l-50.9-32.7c-0.3-0.2-0.8,0-1,0.3c-0.1,0.2-0.1,0.4,0,0.5
			L84,578.4c0,0.1,0.1,0.2,0.1,0.2l42.7,45.9L115.6,578.7"/>
		<path class="st2" d="M208.1,239.4c3.5,14.2,6.9,28.4,11.6,42.2c4.1,12.3,9.1,25.5,17.9,35.3c9.1,10.2,21.2,11.6,34,8.2
			c13-3.5,26.5-8.6,36.2-18.3c1.4-1.4-0.8-3.5-2.1-2.1c-9.1,9.1-21.8,13.9-34,17.3c-6.9,1.9-14.4,3.2-21.3,0.5
			c-6.4-2.5-11.3-7.8-15-13.5c-13.5-20.7-18.5-46.9-24.3-70.5C210.5,236.7,207.6,237.5,208.1,239.4L208.1,239.4z"/>
		<path class="st2" d="M300.5,253.3c5.8-6.2,17.6-10.8,20.9,0.4c2.3,7.9-3.3,15.4-11.3,16.2c-1.9,0.2-1.9,3.2,0,3
			c10.5-1.1,17.8-11.1,13.8-21.4c-4.9-12.4-18.2-8-25.4-0.4C297,252.6,299.2,254.7,300.5,253.3L300.5,253.3z"/>
		<path class="st2" d="M306.1,259c1.1-2.5,3.7-4,6.4-3.6c1.9,0.2,1.9-2.8,0-3c-3.8-0.4-7.4,1.6-9,5.1
			C302.7,259.2,305.3,260.8,306.1,259L306.1,259z"/>
		<path class="st2" d="M307,256l1.8,4.1c0.4,0.7,1.3,1,2,0.5c0.7-0.4,0.9-1.3,0.5-2l-1.8-4.1c-0.4-0.7-1.3-1-2-0.5
			C306.9,254.4,306.6,255.2,307,256L307,256z"/>
		<path class="st2" d="M218.8,235.5c-4.1,4.6-9.8,7-17.8,7c-6.2,0-12.7-9.8-16-15c-15.4-24.6-7.1-45.6,17-61.1
			c3-1.9,18.4-14.2,27.8-9.3c1.9,1,3.6,2.3,5.6,2.8c4.2,1,8.3-1.9,12.5-3.1c10.9-3.1,21.2,5.8,31.9,9.7c12.7,4.6,27.6,2.3,39.2,9.3
			c11,6.6,16.1,21.7,11.4,33.7S311.6,229,299,226.3c-7.1-1.6-13.4-5.9-20.5-7.3c-24-4.7-44.8,24.1-68.8,20"/>
		<path class="st2" d="M287.7,223.6c1.7,10.1,5,19.9,9.8,28.9c0.9,1.7,3.5,0.2,2.6-1.5c-4.6-8.8-7.8-18.4-9.5-28.2
			C290.3,221,287.4,221.8,287.7,223.6z"/>
		<path class="st2" d="M321,220.6c1,10.4,1.3,20.8,1,31.2c0,1.9,3,1.9,3,0c0.3-10.4,0-20.8-1-31.2
			C323.8,218.7,320.8,218.6,321,220.6z"/>
		<path class="st2" d="M296.8,230.1c0.8,0,1.5-0.7,1.5-1.5s-0.7-1.5-1.5-1.5s-1.5,0.7-1.5,1.5S295.9,230.1,296.8,230.1z"/>
		<path class="st2" d="M301,238.3v-0.5c0-0.8-0.7-1.5-1.5-1.5s-1.5,0.7-1.5,1.5v0.5c0,0.8,0.7,1.5,1.5,1.5S301,239.1,301,238.3
			L301,238.3z"/>
		<path class="st2" d="M303.8,246.8c0.8,0,1.5-0.7,1.5-1.5s-0.7-1.5-1.5-1.5s-1.5,0.7-1.5,1.5S302.9,246.8,303.8,246.8z"/>
		<path class="st2" d="M305.9,233.9c0.8,0,1.5-0.7,1.5-1.5s-0.7-1.5-1.5-1.5s-1.5,0.7-1.5,1.5S305.1,233.9,305.9,233.9z"/>
		<path class="st2" d="M319.4,225.8c0.8,0,1.5-0.7,1.5-1.5s-0.7-1.5-1.5-1.5s-1.5,0.7-1.5,1.5S318.6,225.8,319.4,225.8z"/>
		<path class="st2" d="M310.9,232.4v0.5c0,0.8,0.7,1.5,1.5,1.5s1.5-0.7,1.5-1.5v-0.5c0-0.8-0.7-1.5-1.5-1.5S310.9,231.6,310.9,232.4
			z"/>
		<path class="st2" d="M312.4,242.5c0.8,0,1.5-0.7,1.5-1.5s-0.7-1.5-1.5-1.5s-1.5,0.7-1.5,1.5S311.6,242.5,312.4,242.5z"/>
		<path class="st2" d="M313.5,227.4c0.8,0,1.5-0.7,1.5-1.5s-0.7-1.5-1.5-1.5s-1.5,0.7-1.5,1.5S312.6,227.4,313.5,227.4z"/>
		<path class="st2" d="M319.9,242c0.8,0,1.5-0.7,1.5-1.5s-0.7-1.5-1.5-1.5s-1.5,0.7-1.5,1.5S319.1,242,319.9,242z"/>
		<path class="st2" d="M319.4,233.9c0.8,0,1.5-0.7,1.5-1.5s-0.7-1.5-1.5-1.5s-1.5,0.7-1.5,1.5S318.6,233.9,319.4,233.9z"/>
		<path class="st2" d="M303.2,229c0.8,0,1.5-0.7,1.5-1.5s-0.7-1.5-1.5-1.5s-1.5,0.7-1.5,1.5S302.4,229,303.2,229z"/>
		<path class="st2" d="M321.4,264.2c1.3,12.5,4.5,24.8,7.1,37.1c3,13.4,6,26.9,9.5,40.2c0.3,0.8,1.2,1.2,1.9,0.9
			c0.7-0.3,1.1-1,1-1.7c-3.4-12.9-6.3-25.8-9.2-38.8c-2.7-12.4-6-25-7.4-37.7C324.2,262.3,321.2,262.2,321.4,264.2L321.4,264.2z"/>
		<path class="st2" d="M279.1,322.8l3.4,23.2c0.7,4.8,0.7,10.4,4.5,13.9c5.5,5.1,15.7,7,23,7.5s14.8-0.8,20.6-5.3
			c6.7-5.1,9.4-13,10.4-21.1c0.2-1.9-2.8-1.9-3,0c-1,7.7-3.8,15.3-10.6,19.7c-5.4,3.5-12.2,4.2-18.5,3.7s-18-2.6-21.4-8.4
			c-2.4-4.2-2.1-10.8-2.8-15.5L282,322C281.7,320.1,278.8,320.9,279.1,322.8L279.1,322.8z"/>
		<path class="st2" d="M281.5,321.5c-0.6,0.6-1,1.5-0.9,2.4c0,0.8,0.7,1.5,1.6,1.5c0.5,0,1-0.3,1.2-0.7l2.7-3.5l-2.7-1.2l-2,5.1
			c-0.6,1.6,1.9,2.6,2.7,1.2c0.7-1.3,1.5-2.4,2.5-3.5l-2.5-1.5c-0.3,1.2-0.8,2.2-1.6,3.1c-1.1,1.5,0.8,3.6,2.1,2.1l5.7-6.1l-2.4-1.8
			l-6.2,9c-1,1.4,1.2,3.1,2.4,1.8l9.3-10.1l-2.1-2.1c-4.2,5.1-7.4,11-9.4,17.3c-0.5,1.7,1.8,2.5,2.7,1.2c3.9-6.1,7.5-12.4,10.6-19
			c0.6-1.2-0.7-3-2-2c-7.5,5-11.8,11.1-11.2,20.4c0.1,1.9,3.1,1.9,3,0c-0.5-8.2,3-13.4,9.6-17.8l-2-2c-3.1,6.6-6.6,12.9-10.6,19
			l2.7,1.1c1.8-5.8,4.7-11.3,8.6-16c1.2-1.5-0.8-3.6-2.1-2.1l-9.2,10.1l2.4,1.8l6.2-9c1-1.4-1.2-3-2.4-1.8l-5.7,6.1l2.1,2.1
			c1.1-1.3,1.9-2.8,2.4-4.4c0.2-0.8-0.3-1.6-1.1-1.8c-0.5-0.1-1,0-1.4,0.4c-1.1,1.3-2.2,2.7-3,4.1l2.7,1.1l2-5.1
			c0.7-1.7-1.8-2.4-2.7-1.1l-2.7,3.5l2.8,0.8v-0.3C284.8,322.2,282.7,320,281.5,321.5L281.5,321.5z"/>
		<path class="st2" d="M480.3,560.3c1.1,6.7,1.8,13.4,2,20.2c0.1,3.1,0.1,6.3,0,9.4c-0.2,4.4-0.5,7.5-5.3,9c-3.1,1-7,1.1-10.3,1.7
			c-2.9,0.5-5.7,0.9-8.6,1.2c-14.4,1.4-29,1.8-43.5,1.2c-36.9-1.2-74-6.2-109.5-16.5c-19-5.5-37.8-12.6-54.8-22.8
			c-0.7-0.4-1.6-0.2-2.1,0.5c-0.4,0.7-0.2,1.6,0.5,2.1c33.4,20,73,29.3,111.2,34.8c33.5,4.8,68.7,7.6,102.4,3.1
			c2.9-0.4,5.8-0.9,8.7-1.4c4-0.7,9.1-0.5,12-3.9c3.4-4.1,2.4-11.6,2.3-16.5c-0.2-7.7-1-15.3-2.2-22.9
			C482.9,557.6,480.1,558.4,480.3,560.3L480.3,560.3z"/>
		<path class="st2" d="M342,340.7c19.2,0.5,39.7,2.1,58.1,8c17.1,5.5,25.6,21.3,31.8,37.1c14,35.8,24.4,73,33.8,110.3
			c5.4,21.2,11.1,42.5,14.6,64.1c0.3,1.9,3.2,1.1,2.9-0.8c-3.4-20.4-8.7-40.4-13.7-60.4c-5.1-20.2-10.4-40.3-16.4-60.3
			c-5.7-19-11.9-38.1-19.4-56.5c-5.6-13.8-13.4-28-27.6-34.4c-9.4-4.2-20.3-5.7-30.4-7.2c-11.2-1.6-22.4-2.6-33.7-2.9
			C340.1,337.7,340.1,340.7,342,340.7z"/>
		<path class="st2" d="M363,450.4c10.8,28.3,25.8,55.5,33,85c0.5,1.9,3.4,1.1,2.9-0.8c-7.2-29.5-22.2-56.7-33-85
			C365.3,447.8,362.4,448.6,363,450.4L363,450.4z"/>
		<path class="st2" d="M248.8,246.8c3-4.1,8.5-5.6,13.1-3.5c0.9,0.4,2.4-0.1,2.3-1.3c-0.9-9.4-15.7-2.8-18,2.5
			c-0.8,1.7,1.8,3.3,2.6,1.5c2.2-4.7,7.2-6.4,11.7-3.7c1.2,0.7,3-0.8,2-2.1c-4.4-5.7-15-1.9-16.8,4.5c-0.2,0.8,0.3,1.6,1.1,1.8
			c0.5,0.1,1,0,1.4-0.4c3.2-3.1,7.7-7.4,12.3-4.3c1.6,1.1,3.1-1.5,1.5-2.6c-5.9-3.9-11.8,0.6-15.9,4.8l2.5,1.4
			c1-3.5,8.6-7.3,11.3-3.7l2.1-2.1c-5.2-3.2-11.9-1.6-15.1,3.6c-0.2,0.4-0.5,0.8-0.7,1.2l2.6,1.5c1-2.3,2.9-3.4,5.1-4.3
			c1.7-0.7,7-3.1,7.4,0.3l2.3-1.3c-6.1-2.9-13.3-0.9-17.2,4.6C245,246.8,247.6,248.3,248.8,246.8L248.8,246.8z"/>
		<path class="st2" d="M233.4,254.8c2.1,9.5,3.8,19,5,28.6c0.7,5.3,0.8,10.1,7.5,9.3c1.9-0.2,1.9-3.2,0-3c-4.8,0.6-4.3-4.9-4.8-8.2
			c-0.4-2.7-0.8-5.5-1.2-8.2c-1-6.5-2.3-12.9-3.7-19.3C235.8,252.1,232.9,252.9,233.4,254.8L233.4,254.8z"/>
		<path class="st2" d="M253.5,311.6c5.6-0.2,10.6-3.7,12.7-9c0.7-1.8-2.2-2.5-2.9-0.8c-1.7,4-5.5,6.6-9.8,6.7
			C251.6,308.7,251.6,311.7,253.5,311.6L253.5,311.6z"/>
		<path class="st2" d="M256.2,262.7c-1.7,1.9-2,4.7-0.6,6.8c0.4,0.7,1.4,0.9,2.1,0.5c0.2-0.1,0.4-0.3,0.5-0.5c1.2-2.4,0.8-5.2-1-7.1
			c-0.6-0.6-1.6-0.6-2.1,0c-0.2,0.2-0.3,0.4-0.4,0.6c-0.8,2.3-0.4,4.9,0.9,6.9c0.4,0.7,1.4,0.9,2.1,0.5c0.2-0.1,0.4-0.3,0.5-0.5
			c0.9-1.5,1.2-3.3,0.8-5c-0.3-1.5-1.4-3.8-3.3-3c-1.5,0.6-1.7,3-1.6,4.4c0.1,1.9,0.9,3.6,2.1,5c0.8,1,2.1,0.3,2.5-0.7
			c1-2.7,0.3-5.8-1.8-7.8c-0.6-0.6-1.6-0.6-2.1,0c-0.2,0.2-0.3,0.4-0.4,0.6c-1.1,2.9-0.4,6.2,1.7,8.4c1.3,1.4,3.4-0.7,2.1-2.1
			c-1.4-1.5-1.7-3.7-0.9-5.5l-2.5,0.7c1.4,1.2,1.8,3.2,1.1,4.9l2.5-0.7c-0.6-0.7-1-1.5-1.1-2.4c-0.1-0.5-0.3-2.1,0.1-2.4l-1.5,0.4
			c0.2,0.6,0.3,1.1,0.3,1.7c0,0.7-0.2,1.4-0.6,2h2.6c-1-1.3-1.2-3-0.6-4.6l-2.5,0.7c0.9,0.9,1.1,2.3,0.5,3.5h2.6
			c-0.7-0.9-0.7-2.2,0.1-3.1C259.5,263.4,257.4,261.3,256.2,262.7L256.2,262.7z"/>
		<path class="st2" d="M218.1,255.5c1.9-2.5,5.3-3.4,8.1-2.1c0.6,0.3,1.5,0,1.4-0.8c-0.5-5.8-9.7-1.8-11.2,1.6
			c-0.5,1.1,1.1,2,1.6,0.9c1-2.5,3.9-3.7,6.4-2.7c0.3,0.1,0.6,0.3,0.8,0.4c0.8,0.4,1.9-0.5,1.3-1.3c-2.7-3.6-9.3-1.2-10.4,2.8
			c-0.1,0.5,0.2,1,0.7,1.1c0.3,0.1,0.6,0,0.9-0.2c2-1.9,4.8-4.6,7.6-2.6c1,0.7,1.9-1,0.9-1.6c-3.6-2.4-7.3,0.4-9.9,3l1.6,0.9
			c0.6-2.2,5.3-4.5,7-2.3l1.3-1.3c-3.2-2-7.4-1-9.4,2.2c-0.2,0.3-0.3,0.5-0.4,0.8l1.6,0.9c0.6-1.3,1.8-2.2,3.1-2.7
			c1.1-0.4,4.4-1.9,4.6,0.2l1.4-0.8c-3.8-1.8-8.3-0.6-10.7,2.8C215.8,255.6,217.4,256.5,218.1,255.5L218.1,255.5z"/>
		<path class="st2" d="M225.2,268.7c-1.7,1.9-2,4.7-0.6,6.8c0.4,0.7,1.4,0.9,2.1,0.5c0.2-0.1,0.4-0.3,0.5-0.5c1.2-2.4,0.8-5.2-1-7.1
			c-0.6-0.6-1.6-0.6-2.1,0c-0.2,0.2-0.3,0.4-0.4,0.6c-0.8,2.3-0.4,4.9,0.9,6.9c0.4,0.7,1.4,0.9,2.1,0.5c0.2-0.1,0.4-0.3,0.5-0.5
			c0.9-1.5,1.2-3.3,0.8-5c-0.3-1.5-1.4-3.8-3.3-3c-1.5,0.6-1.7,3-1.6,4.4c0.1,1.9,0.9,3.6,2.1,5c0.8,1,2.1,0.3,2.5-0.7
			c1-2.7,0.3-5.8-1.8-7.8c-0.6-0.6-1.6-0.6-2.1,0c-0.2,0.2-0.3,0.4-0.4,0.6c-1.1,2.9-0.4,6.2,1.7,8.4c1.3,1.4,3.4-0.7,2.1-2.1
			c-1.4-1.5-1.7-3.7-0.9-5.5l-2.5,0.7c1.4,1.2,1.8,3.2,1.1,4.9l2.5-0.7c-0.6-0.7-1-1.5-1.1-2.4c-0.1-0.5-0.3-2.1,0.1-2.4l-1.5,0.4
			c0.2,0.6,0.3,1.1,0.3,1.7c0,0.7-0.2,1.4-0.6,2h2.6c-1-1.3-1.2-3-0.6-4.6l-2.5,0.7c0.9,0.9,1.1,2.3,0.5,3.5h2.6
			c-0.7-0.9-0.7-2.3,0.1-3.1C228.5,269.4,226.4,267.3,225.2,268.7L225.2,268.7z"/>
		<circle class="st3" cx="257.1" cy="266.2" r="18.5"/>
		<circle class="st4" cx="219.2" cy="273.3" r="14"/>
		<path class="st0" d="M233.6,271.6l3.8-0.7c0.8-0.2,1.3-1,1.1-1.8c-0.2-0.8-1-1.3-1.8-1.1l0,0l-3.8,0.7c-0.8,0.2-1.2,1.1-1,1.8
			C232,271.4,232.8,271.8,233.6,271.6L233.6,271.6z"/>
		<path class="st0" d="M275.5,259.9c8.1-3.6,16.3-6.8,24.7-9.6c1.8-0.6,1-3.5-0.8-2.9c-8.6,2.9-17.1,6.2-25.4,9.9
			C272.2,258.1,273.7,260.7,275.5,259.9z"/>
		<path class="st2" d="M417.4,533.5c-47.9,1.7-96-3.2-143.6-7c-8.8-0.7-17.5-1.4-26.3-2c-10.7-0.7-22.1-1.8-32.4,2
			c-24.9,9-34.4,40.3-44.2,62.1l-6.1,13.6c-1.2,2.7-2.9,5.6-3,8.7c-0.2,4.7,3.7,7.1,7.9,5.3c6.1-2.7,10.8-11.4,14-16.9
			c4.1-7.3,7.2-15.1,9.1-23.3c0.4-1.9-2.4-2.7-2.9-0.8c-1.7,7.1-4.2,13.9-7.6,20.3c-1.3,2.5-2.8,4.9-4.4,7.3
			c-1.9,2.8-5.5,9.5-9.1,10.5c-7.9,2.1-1.4-9.5-0.6-11.4l4.1-9.1c3.3-7.5,6.7-14.9,10-22.4c4.8-10.6,9.9-21.4,17.8-30.1
			c10-10.9,22.5-13.9,37-13.4c36.7,1.2,73.2,5.8,109.9,7.9c23.4,1.4,46.9,2.5,70.4,1.7C419.4,536.5,419.4,533.5,417.4,533.5
			L417.4,533.5z"/>
		<path class="st2" d="M190.5,574.2c0.5,11.5,10.2,20.4,21.6,20c0.2,0,0.4,0,0.6,0c1.9-0.1,1.9-3.1,0-3c-9.8,0.8-18.4-6.5-19.2-16.3
			c0-0.2,0-0.4,0-0.6C193.4,572.2,190.4,572.2,190.5,574.2z"/>
		<path class="st2" d="M206,570.6c-1.7,2.8-0.2,6.6,0.6,9.6c0.8,3.8,2.5,7.4,4.9,10.4c4.1,4.8,11.1,7,16.7,3.5
			c1.6-1,0.1-3.6-1.5-2.6c-5.2,3.3-11.4,0-14.3-4.8c-1.2-2.1-2.1-4.3-2.7-6.7c-0.5-1.9-2.1-6.2-1.1-8c0.4-0.7,0.1-1.6-0.6-2
			C207.3,569.7,206.4,569.9,206,570.6L206,570.6z"/>
		<path class="st2" d="M220.1,574.6c2,8.5,3.9,24.4,16.1,23.1c5.2-0.5,9.2-4.4,11.8-8.6c3.7-6.1,7-12.4,10-18.9
			c0.8-1.7-1.8-3.3-2.6-1.5c-2,4-4.4,7.8-6.4,11.8c-2.3,4.7-4.4,10.2-9.2,12.9c-12.4,6.9-15-11.9-16.8-19.6
			C222.6,572,219.7,572.8,220.1,574.6L220.1,574.6z"/>
		<path class="st2" d="M254.2,552.5c-3.2,9.6-9.3,17.9-17.4,23.9c-1.5,1.1,0,3.8,1.5,2.6c8.8-6.4,15.4-15.4,18.8-25.7
			C257.7,551.5,254.8,550.7,254.2,552.5L254.2,552.5z"/>
		<path class="st2" d="M382.3,489.2c20.1-18.3,43-36.1,71.4-37.1c1.9-0.1,1.9-3.1,0-3c-29.2,1-52.8,19.1-73.5,38
			C378.7,488.4,380.8,490.5,382.3,489.2L382.3,489.2z"/>
		<path class="st2" d="M391.1,516.4c4.1,6.6,8.7,12.9,13.6,18.9l1.8-2.4c-2.2-1.3-4.9-0.3-6.7-2.2c-2.1-2.4-3.6-6.9-5-9.7
			c-0.9-1.7-3.5-0.2-2.6,1.5c1.5,3.1,3.3,6,5.3,8.8c0.4,0.7,1.4,0.9,2.1,0.5c0.7-0.4,0.9-1.3,0.5-2l-3.1-7l-2.6,1.5l5,7.1l2.6-1.5
			c-4-5.6-7.3-11.6-9.9-17.9c-0.7-1.7-3.4-1.1-2.9,0.8c1.8,7.3,5.3,14,10,19.8c1.2,1.5,3.3-0.6,2.1-2.1c-4.4-5.4-7.6-11.7-9.3-18.5
			l-2.9,0.8c2.6,6.6,6.1,12.9,10.2,18.6c1.1,1.5,3.7,0.1,2.6-1.5l-5-7.1c-0.4-0.7-1.4-0.9-2.1-0.5c-0.7,0.4-0.9,1.3-0.5,2l3.1,7
			l2.6-1.5c-2-2.8-3.8-5.8-5.3-8.8l-2.6,1.5c1.8,3.5,3.3,8.4,6.1,11.2c2.1,2.1,4.5,0.5,6.7,1.8c1.5,0.9,2.9-1.1,1.8-2.3
			c-4.8-5.8-9.2-11.9-13.2-18.3C392.7,513.3,390.1,514.8,391.1,516.4L391.1,516.4z"/>
		<path class="st2" d="M391.9,517.2c4.1,7.2,9.3,13.6,15.5,19c0.6,0.6,1.6,0.5,2.1-0.1c0.5-0.6,0.5-1.5,0-2
			c-7.6-7.9-15.9-20-20.8-29.8c-0.9-1.7-1.5,2.8-0.6,4.5c5,10.1,11.5,19.3,19.3,27.4l2.1-2.1c-6-5.2-11.1-11.4-15.1-18.4
			C393.6,514.1,391,515.6,391.9,517.2L391.9,517.2z"/>
		<path class="st2" d="M230,443.3c2.8,27.6,8.4,54.9,16.6,81.4c0.6,1.8,3.5,1,2.9-0.8c-8.2-26.2-13.7-53.3-16.5-80.6
			C232.8,441.4,229.8,441.4,230,443.3z"/>
		<path class="st2" d="M356.2,353.6c7.9,1.9,15.9,3.6,23.8,5.3c1.9,0.4,2.7-2.5,0.8-2.9c-8-1.6-15.9-3.4-23.8-5.3
			C355.1,350.2,354.3,353.1,356.2,353.6z"/>
		<path class="st2" d="M405.1,354.4c-16.5,2.9-26.8,17.3-29.2,33.1c-0.3,1.9,2.6,2.7,2.9,0.8c2.3-14.9,11.5-28.4,27.1-31.1
			C407.8,356.9,407,354,405.1,354.4L405.1,354.4z"/>
		<path class="st2" d="M282.1,344.2c-14.4,2.8-28.9,3.4-42.8,8.9c-5.6,2.1-10.8,5.1-15.4,8.8c-5.9,4.9-9.7,11.1-13.6,17.6
			c-17.2,29.1-28.9,60.9-40.2,92.7c-0.6,1.8,2.2,2.6,2.9,0.8c10.8-30.4,21.9-60.7,38-88.8c4-6.9,7.8-14,13.9-19.3
			c5.3-4.4,11.3-7.8,17.9-10c13.1-4.6,26.6-5.2,40.1-7.9C284.7,346.7,283.9,343.8,282.1,344.2L282.1,344.2z"/>
		<path class="st2" d="M119.1,432.5c-8.7-2.1-17.6-3.5-26.5-4c-4.8-0.2-8.6,0.4-8.3,6c0.3,5.3,5.6,9.5,9.7,12.1
			c5.7,3.7,12.4,5.4,19.1,6.3c1.6,0.2,1.6-2.4,0-2.6c-5-0.6-10-2-14.6-4.1c-4.1-2-10.3-5.9-11.4-10.6c-1.6-6.7,9.6-4.2,13-3.8
			c6.2,0.7,12.3,1.8,18.3,3.3C120,435.4,120.7,432.9,119.1,432.5L119.1,432.5z"/>
		<path class="st2" d="M99.7,419.6c11.5,2.1,23.6,6.8,32.2,15c1.2,1.1,3-0.7,1.8-1.8c-8.8-8.5-21.4-13.4-33.3-15.6
			C98.8,416.9,98.1,419.4,99.7,419.6L99.7,419.6z"/>
		<path class="st2" d="M101.9,417.6c-4.6-1-9.1-1.4-13.5,0.6c-5,2.3-9,6.7-12.8,10.6c-3.8,3.9-7.4,8.1-10.8,12.5
			c-3.1,4.1-6.8,8.6-8.2,13.7c-0.8,2.8-1,5.1,1.1,7.1s4,2.5,6.9,1.3c10.1-4.4,17.9-11.5,26-18.8c1.2-1.1-0.6-2.9-1.8-1.8
			c-5.5,5-10.8,10.3-17.2,14.1c-2.5,1.5-8.6,5.4-10.9,4.3c-4.3-2.1-0.3-8.8,1.3-11.4c4.5-6.9,9.6-13.3,15.4-19.1
			c7-7.2,13.2-12.9,23.8-10.5C102.9,420.4,103.5,417.9,101.9,417.6z"/>
		<path class="st2" d="M89.3,417.9c-5.7-7.3-13.7-2.5-18.3,3.3c-4.2,5.3-11,13.9-5.5,20.4c1.1,1.3,2.9-0.6,1.8-1.8
			c-3.9-4.6,1.7-11.4,4.4-15.3c3.5-4.9,10.3-11.8,15.8-4.8C88.5,421,90.3,419.2,89.3,417.9z"/>
		<path class="st2" d="M74.6,417c-3.3,1.9-8.1-0.3-11.7,1.1c-3,1.1-4.7,3.6-5.9,6.4c-3.1,7.6-0.5,15.9,4.2,22.1c1,1.3,3.2,0,2.2-1.3
			c-4.4-5.7-7.4-13.9-3.7-20.7c4.3-8.1,10.3-2,16.1-5.4c0.6-0.4,0.7-1.2,0.3-1.8C75.9,416.9,75.2,416.7,74.6,417z"/>
		<path class="st2" d="M59.5,420.7c-5.4,1.5-11.1,5.4-11.5,11.4c-0.6,7.6,5.8,14.2,10,19.9c1,1.3,3.2,0,2.2-1.3
			c-3.2-4.4-7.5-9-9.2-14.3c-2-6.6,3.2-11.5,9.2-13.1c0.7-0.2,1-1,0.8-1.7C60.7,421,60.1,420.6,59.5,420.7L59.5,420.7z"/>
		<path class="st2" d="M131.8,434.8c19.1,19.3,38.4,38.6,54.8,60.3c1.1,1.5,3.8,0,2.6-1.5c-16.6-21.9-36-41.4-55.3-60.9
			C132.5,431.3,130.4,433.4,131.8,434.8z"/>
		<path class="st2" d="M234.7,481.7c-7.7,15.1-14.1,30.7-21.6,45.9c-0.9,1.7,1.7,3.2,2.6,1.5c7.5-15.2,13.9-30.8,21.6-45.9
			C238.2,481.5,235.6,480,234.7,481.7L234.7,481.7z"/>
		<path class="st2" d="M181.6,453.8c20.4,5.6,36.5,19.7,50.6,35c1.3,1.4,3.4-0.7,2.1-2.1c-14.4-15.6-31-30-51.9-35.7
			c-0.8-0.2-1.6,0.3-1.8,1.1C180.4,452.8,180.9,453.6,181.6,453.8L181.6,453.8z"/>
		<path class="st2" d="M96.5,461.8c-3.1-5.7-4.5-12.1-4.1-18.6c0.1-1.6-2.5-1.6-2.6,0c-0.5,6.9,1.1,13.8,4.4,19.9
			C95.1,464.6,97.3,463.3,96.5,461.8L96.5,461.8z"/>
		<path class="st2" d="M70.2,460.7c7.2,13.4,18.4,23.6,29.5,33.7c8.3,7.6,15.9,15.7,23.8,23.7c17.2,17.4,37.1,37.3,61.7,43.2
			c1.6,0.4,2.3-2.1,0.7-2.5c-24.6-5.9-44.4-26.1-61.5-43.5c-7.3-7.4-14.5-15.1-22.2-22.1c-11.1-10.2-22.5-20.3-29.7-33.8
			C71.7,458,69.4,459.3,70.2,460.7z"/>
		<path class="st2" d="M229.3,486.1l-2.4,7c-0.6,1.9,2.2,2.5,2.9,0.8c2.7-6.7,4.6-13.6,5.9-20.6l-2.9-0.8l-1.6,11.4l2.9,0.4
			l0.7-20.8c0-0.8-0.7-1.5-1.5-1.5c-0.7,0-1.2,0.4-1.4,1.1l-8.7,36.5c-0.2,0.8,0.3,1.6,1.1,1.8c0.8,0.2,1.6-0.3,1.8-1
			c2.5-7.2,5.2-14.4,7.4-21.7c1.9-6.2-0.1-13,1.2-19.5h-2.9c1.7,8.2,1.5,16.6-0.5,24.7l3,0.4c-0.6-7.3-0.5-14.5,0.2-21.8
			c0.2-1.7-2.6-2-3-0.4c-3.7,16.6-8,33-12.9,49.3c-0.6,1.9,2.2,2.6,2.9,0.8l6.6-17.8c2.1-5.7,3.9-11.8,7.9-16.5l-2.6-1.1l-0.8,6.5
			c-0.1,0.8,0.8,1.5,1.5,1.5h0.3c0.7,0,1.3-0.5,1.4-1.1c0.3-0.6,0.2-1.3-0.2-1.9c-0.4-0.6-1-0.8-1.7-0.7c-2.5,0.7-3.6,4.1-4.8,6.2
			c-2.4,4.2-4.6,8.6-6.6,13c-3.8,8.4-6.9,17.2-9.4,26.1c-0.2,0.8,0.4,1.6,1.2,1.8c0.7,0.1,1.4-0.3,1.7-1c2.1-7.6,4.6-15,7.7-22.2
			c1.5-3.6,3.2-7.1,5-10.5c0.9-1.8,4.1-9.9,6-10.4l-1.7-0.7l-0.1-0.4l1.4-1.1h-0.3l1.5,1.5l0.8-6.5c0-0.8-0.7-1.5-1.5-1.5
			c-0.4,0-0.7,0.2-1,0.4c-3.5,4.2-5.4,9-7.3,14.1c-2.7,7.2-5.3,14.4-7.9,21.5l2.9,0.8c4.8-16.3,9.1-32.7,12.9-49.3l-2.9-0.4
			c-0.7,7.2-0.8,14.5-0.2,21.8c0.1,1.6,2.5,2.1,2.9,0.4c2.1-8.6,2.3-17.6,0.5-26.3c-0.3-0.8-1.1-1.2-1.9-1c-0.5,0.1-0.8,0.5-1,1
			c-0.6,3-1,6.1-0.9,9.2c0,3.6,0.8,6.7-0.2,10.2c-2,7.3-5,14.5-7.4,21.7l2.9,0.8l8.7-36.5l-3-0.4l-0.7,20.8c-0.1,1.6,2.7,2.1,3,0.4
			l1.6-11.4c0.3-1.9-2.6-2.7-2.9-0.8c-1.3,7.1-3.3,14-5.9,20.6l2.9,0.8l2.4-7C232.8,485.1,229.9,484.3,229.3,486.1L229.3,486.1z"/>
		
			<ellipse transform="matrix(4.531440e-02 -0.999 0.999 4.531440e-02 -227.3319 436.0824)" class="st5" cx="114.5" cy="337" rx="21.6" ry="21.6"/>
		<path class="st6" d="M117.6,346.1l-20.4,17.2c-0.6,0.5-0.6,1.3-0.1,1.9c0.1,0.1,0.3,0.2,0.4,0.3l20.4,10.2
			c0.7,0.4,1.5,0.1,1.8-0.5c0.1-0.2,0.2-0.4,0.2-0.7v-27.4c0-0.7-0.5-1.4-1.3-1.4C118.2,345.7,117.8,345.9,117.6,346.1z"/>
		<path class="st6" d="M314,21.2l-37.7,29.6c-1,0.7-1.2,2.1-0.4,3.1c0.2,0.3,0.6,0.6,0.9,0.7l37.7,17.5c1.2,0.6,2.7,0.1,3.3-1.1
			c0.2-0.3,0.2-0.6,0.3-1V22.9c-0.1-1.4-1.3-2.4-2.7-2.3C314.9,20.6,314.4,20.8,314,21.2z"/>
		<polygon class="st5" points="543.2,406.8 485.4,392.9 493.9,443 		"/>
		<circle class="st7" cx="142.4" cy="73.5" r="21.6"/>
		<circle class="st0" cx="364.5" cy="154.1" r="18"/>
		<circle class="st7" cx="425" cy="269.2" r="7.2"/>
		<line class="st8" x1="80.2" y1="569.5" x2="0" y2="569.5"/>
		<line class="st8" x1="180.8" y1="569.5" x2="113.1" y2="569.5"/>
		<line class="st8" x1="614" y1="569.5" x2="481.8" y2="569.5"/>
		<path class="st2" d="M109.2,188L109.2,188v-0.1l0,0l0,0c0,0,0-0.1,0-0.1v-0.1v-0.1v-0.1c0,0,0-0.1,0-0.1c0,0,0-0.1,0-0.1l0,0
			c0-0.1,0-0.1,0-0.2c0,0,0,0,0-0.1l0,0l0.6-32c0-0.6-0.3-1.2-0.9-1.5l-13.1-7.2l-25-14c-0.6-0.3-1.2-0.3-1.8,0.1l-26.7,17.6
			c-0.3,0.2-0.6,0.6-0.7,0.9l-19.6,66.5c-0.2,0.8,0.1,1.6,0.8,2l25.3,13.9l13.1,7.2c0.7,0.4,1.6,0.2,2.1-0.4l45.7-52.1l0,0v-0.1
			L109.2,188z M106.2,184.2l-9.7-5.3l0.5-28.1l9.7,5.3L106.2,184.2z M44.8,152.6l25.3-16.7l23.5,12.9l-0.5,30.3l-44.4,50.6
			l-22.9-12.6L44.8,152.6z M61.8,237l-10-5.5L95.2,182l10,5.5L61.8,237z"/>
		<path class="st2" d="M315.5,0l-19.4,48.2l67.3,27.1l19.4-48.2L315.5,0z M362.1,72.2l-62.8-25.3l17.6-43.8l62.8,25.3L362.1,72.2z"
			/>
		<path class="st2" d="M371.9,31.8l-11.2-4.5l-4.5,11.2l11.2,4.5L371.9,31.8z M366,39.9l-6.7-2.7l2.7-6.7l6.7,2.7L366,39.9z"/>
		<path class="st2" d="M318.6,18.2l22.5,9c0.7,0.1,1.3-0.3,1.4-0.9c0.1-0.5-0.1-1-0.5-1.3l-22.4-9c-0.6-0.3-1.3,0-1.6,0.6
			C317.7,17.2,317.9,17.9,318.6,18.2C318.6,18.2,318.6,18.2,318.6,18.2L318.6,18.2z"/>
		<path class="st2" d="M316.4,23.8l22.4,9c0.6,0.2,1.3-0.1,1.6-0.7c0.2-0.6-0.1-1.3-0.7-1.6l-22.4-9c-0.6-0.3-1.3,0-1.6,0.6
			s0,1.3,0.6,1.6C316.3,23.8,316.3,23.8,316.4,23.8L316.4,23.8z"/>
		<path class="st2" d="M320.9,12.6l9,3.6c0.6,0.3,1.3,0,1.6-0.6c0.3-0.6,0-1.3-0.6-1.6c-0.1,0-0.1,0-0.2-0.1l-9-3.6
			c-0.6-0.3-1.3,0-1.6,0.6c-0.3,0.6,0,1.3,0.6,1.6C320.8,12.6,320.9,12.6,320.9,12.6L320.9,12.6z"/>
		<path class="st2" d="M327.4,45.2c-1.5,3.7,0.3,7.9,4,9.5s7.9-0.3,9.5-4c1.5-3.7-0.3-7.9-4-9.5c0,0,0,0,0,0
			C333.1,39.7,328.9,41.5,327.4,45.2z M338.6,49.7c-1,2.5-3.8,3.7-6.3,2.7c-2.5-1-3.7-3.8-2.7-6.3c1-2.5,3.8-3.7,6.3-2.7
			C338.4,44.4,339.6,47.2,338.6,49.7C338.6,49.7,338.6,49.7,338.6,49.7z"/>
		<path class="st2" d="M345,49.2c0.9-0.5,2-0.3,2.6,0.6c0.1,0.2,0.2,0.3,0.2,0.5c0.6,2.2,3,3.6,5.2,2.9c0.4-0.1,0.7-0.2,1-0.4
			c0.9-0.5,2-0.3,2.6,0.6c0.1,0.2,0.2,0.3,0.2,0.5c0.6,2.3,3,3.6,5.2,3c0.4-0.1,0.7-0.3,1-0.4c0.6-0.3,0.8-1.1,0.5-1.6
			c-0.3-0.6-1.1-0.8-1.6-0.5c-0.9,0.6-2,0.4-2.6-0.5c-0.1-0.2-0.2-0.4-0.3-0.6c-0.6-2.3-3-3.6-5.3-2.9c-0.3,0.1-0.7,0.2-1,0.4
			c-0.9,0.5-2,0.3-2.5-0.6c-0.1-0.2-0.2-0.3-0.2-0.5c-0.6-2.2-3-3.6-5.2-2.9c-0.4,0.1-0.7,0.2-1,0.4c-0.6,0.3-0.8,1.1-0.5,1.7
			C343.7,49.3,344.4,49.5,345,49.2L345,49.2z"/>
		<path class="st2" d="M342.3,55.9c0.9-0.5,2-0.2,2.5,0.6c0.1,0.1,0.1,0.3,0.2,0.4c0.6,2.2,3,3.6,5.2,2.9c0.4-0.1,0.7-0.2,1-0.4
			c0.9-0.5,2-0.3,2.6,0.6c0.1,0.2,0.2,0.4,0.2,0.5c0.6,2.3,3,3.6,5.2,2.9c0.3-0.1,0.7-0.2,1-0.4c0.6-0.3,0.8-1.1,0.5-1.6
			c-0.3-0.6-1.1-0.8-1.6-0.5c0,0,0,0,0,0c-0.9,0.5-2,0.3-2.6-0.6c-0.1-0.2-0.2-0.3-0.2-0.5c-0.4-1.3-1.3-2.3-2.5-2.8
			c-1.2-0.5-2.6-0.4-3.7,0.3c-0.9,0.5-2,0.3-2.5-0.6c-0.1-0.2-0.2-0.3-0.2-0.5c-0.6-2.3-3-3.6-5.2-2.9c-0.3,0.1-0.7,0.2-1,0.4
			c-0.6,0.3-0.8,1.1-0.5,1.6C340.9,56,341.7,56.2,342.3,55.9L342.3,55.9z"/>
		<path class="st1" d="M515.3,225.3c0,0-9.9-8.4-21.3-5.3c0,0-1.4-11.2-11.7-7.6l0,0l0,0l0,0c-9.7,5.1-2.4,13.8-2.4,13.8
			c-10.1,6.2-10.7,19.2-10.7,19.2"/>
		<path class="st1" d="M469.1,245.3l2.1,4.7c0,0-7.9,8.9-1.8,24s30.9,27.5,30.9,27.5l3.2,7.1l34.5-15l-3-7.1c0,0,7.9-26.6,1.1-41.4
			c-6.8-14.8-18.8-15.1-18.8-15.1l-2-4.7"/>
		<line class="st1" x1="469.1" y1="245.3" x2="515.3" y2="225.3"/>
		
			<rect x="486.4" y="258.4" transform="matrix(0.9173 -0.3983 0.3983 0.9173 -63.8295 223.246)" class="st1" width="38.1" height="13.7"/>
	</g>
</g>
</svg>
